<?xml version="1.0" encoding="UTF-8" standalone="no"?>
<!DOCTYPE svg PUBLIC "-//W3C//DTD SVG 1.0//EN" "http://www.w3.org/TR/2001/PR-SVG-20010719/DTD/svg10.dtd">
<svg width="50cm" height="12cm" viewBox="167 85 990 228" xmlns="http://www.w3.org/2000/svg" xmlns:xlink="http://www.w3.org/1999/xlink">
  <g>
    <rect style="fill: #ffffff" x="168.925" y="224" width="108.8" height="64"/>
    <rect style="fill: none; fill-opacity:0; stroke-width: 2; stroke: #000000" x="168.925" y="224" width="108.8" height="64"/>
    <text font-size="12.7998" style="fill: #000000;text-anchor:middle;font-family:sans-serif;font-style:normal;font-weight:normal" x="223.325" y="259.9">
      <tspan x="223.325" y="259.9">pandas data</tspan>
    </text>
  </g>
  <g>
    <rect style="fill: #ffffff" x="386" y="143" width="96" height="56"/>
    <rect style="fill: none; fill-opacity:0; stroke-width: 2; stroke: #000000" x="386" y="143" width="96" height="56"/>
    <text font-size="12.7998" style="fill: #000000;text-anchor:middle;font-family:sans-serif;font-style:normal;font-weight:normal" x="434" y="174.9">
      <tspan x="434" y="174.9">Slicer</tspan>
    </text>
  </g>
  <g>
    <rect style="fill: #ffffff" x="502" y="143" width="95.875" height="56"/>
    <rect style="fill: none; fill-opacity:0; stroke-width: 2; stroke: #000000" x="502" y="143" width="95.875" height="56"/>
    <text font-size="12.7998" style="fill: #000000;text-anchor:middle;font-family:sans-serif;font-style:normal;font-weight:normal" x="549.938" y="174.9">
      <tspan x="549.938" y="174.9">Scaler</tspan>
    </text>
  </g>
  <g>
    <rect style="fill: #ffffff" x="620" y="144" width="88" height="56"/>
    <rect style="fill: none; fill-opacity:0; stroke-width: 2; stroke: #000000" x="620" y="144" width="88" height="56"/>
    <text font-size="12.7998" style="fill: #000000;text-anchor:middle;font-family:sans-serif;font-style:normal;font-weight:normal" x="664" y="175.9">
      <tspan x="664" y="175.9">Defaults</tspan>
    </text>
  </g>
  <g>
    <rect style="fill: #ffffff" x="481" y="257" width="128" height="55"/>
    <rect style="fill: none; fill-opacity:0; stroke-width: 2; stroke: #000000" x="481" y="257" width="128" height="55"/>
    <text font-size="12.7998" style="fill: #000000;text-anchor:middle;font-family:sans-serif;font-style:normal;font-weight:normal" x="545" y="288.4">
      <tspan x="545" y="288.4">Tooltip data</tspan>
    </text>
  </g>
  <g>
    <rect style="fill: #ffffff" x="775.05" y="214" width="138.95" height="71"/>
    <rect style="fill: none; fill-opacity:0; stroke-width: 2; stroke: #000000" x="775.05" y="214" width="138.95" height="71"/>
    <text font-size="12.7998" style="fill: #000000;text-anchor:middle;font-family:sans-serif;font-style:normal;font-weight:normal" x="844.525" y="253.4">
      <tspan x="844.525" y="253.4">output DataFrame</tspan>
    </text>
  </g>
  <rect style="fill: none; fill-opacity:0; stroke-width: 2; stroke: #000000" x="353" y="87" width="376" height="141"/>
  <text font-size="12.7998" style="fill: #000000;text-anchor:start;font-family:sans-serif;font-style:normal;font-weight:normal" x="370" y="117">
    <tspan x="370" y="117">Plot data mapper</tspan>
  </text>
  <g>
    <line style="fill: none; fill-opacity:0; stroke-width: 2; stroke: #000000" x1="277.725" y1="256" x2="378.342" y2="177.012"/>
    <polygon style="fill: #000000" points="384.241,172.381 379.463,182.489 378.342,177.012 373.288,174.623 "/>
    <polygon style="fill: none; fill-opacity:0; stroke-width: 2; stroke: #000000" points="384.241,172.381 379.463,182.489 378.342,177.012 373.288,174.623 "/>
  </g>
  <g>
    <line style="fill: none; fill-opacity:0; stroke-width: 2; stroke: #000000" x1="277.725" y1="256" x2="471.358" y2="283.148"/>
    <polygon style="fill: #000000" points="478.786,284.19 468.188,287.753 471.358,283.148 469.577,277.849 "/>
    <polygon style="fill: none; fill-opacity:0; stroke-width: 2; stroke: #000000" points="478.786,284.19 468.188,287.753 471.358,283.148 469.577,277.849 "/>
  </g>
  <g>
    <line style="fill: none; fill-opacity:0; stroke-width: 2; stroke: #000000" x1="609" y1="284.5" x2="765.314" y2="284.971"/>
    <polygon style="fill: #000000" points="772.814,284.993 762.799,289.963 765.314,284.971 762.829,279.963 "/>
    <polygon style="fill: none; fill-opacity:0; stroke-width: 2; stroke: #000000" points="772.814,284.993 762.799,289.963 765.314,284.971 762.829,279.963 "/>
  </g>
  <g>
    <line style="fill: none; fill-opacity:0; stroke-width: 2; stroke: #000000" x1="708" y1="172" x2="766.799" y2="208.832"/>
    <polygon style="fill: #000000" points="773.155,212.813 762.026,211.742 766.799,208.832 767.335,203.267 "/>
    <polygon style="fill: none; fill-opacity:0; stroke-width: 2; stroke: #000000" points="773.155,212.813 762.026,211.742 766.799,208.832 767.335,203.267 "/>
  </g>
  <g>
    <rect style="fill: #ffffff" x="949.925" y="225" width="108.15" height="54"/>
    <rect style="fill: none; fill-opacity:0; stroke-width: 2; stroke: #000000" x="949.925" y="225" width="108.15" height="54"/>
    <text font-size="12.7998" style="fill: #000000;text-anchor:middle;font-family:sans-serif;font-style:normal;font-weight:normal" x="1004" y="255.9">
      <tspan x="1004" y="255.9">Bokeh source</tspan>
    </text>
  </g>
  <g>
    <rect style="fill: #ffffff" x="1093.95" y="226" width="62.05" height="54"/>
    <rect style="fill: none; fill-opacity:0; stroke-width: 2; stroke: #000000" x="1093.95" y="226" width="62.05" height="54"/>
    <text font-size="12.7998" style="fill: #000000;text-anchor:middle;font-family:sans-serif;font-style:normal;font-weight:normal" x="1124.97" y="256.9">
      <tspan x="1124.97" y="256.9">Plot</tspan>
    </text>
  </g>
  <g>
    <line style="fill: none; fill-opacity:0; stroke-width: 2; stroke: #000000" x1="914" y1="249.5" x2="940.212" y2="251.324"/>
    <polygon style="fill: #000000" points="947.694,251.845 937.371,256.138 940.212,251.324 938.066,246.163 "/>
    <polygon style="fill: none; fill-opacity:0; stroke-width: 2; stroke: #000000" points="947.694,251.845 937.371,256.138 940.212,251.324 938.066,246.163 "/>
  </g>
  <g>
    <line style="fill: none; fill-opacity:0; stroke-width: 2; stroke: #000000" x1="1058.07" y1="252" x2="1084.22" y2="252.729"/>
    <polygon style="fill: #000000" points="1091.71,252.938 1081.58,257.657 1084.22,252.729 1081.86,247.661 "/>
    <polygon style="fill: none; fill-opacity:0; stroke-width: 2; stroke: #000000" points="1091.71,252.938 1081.58,257.657 1084.22,252.729 1081.86,247.661 "/>
  </g>
  <g>
    <line style="fill: none; fill-opacity:0; stroke-width: 2; stroke: #000000" x1="482" y1="171" x2="491.264" y2="171"/>
    <polygon style="fill: #000000" points="498.764,171 488.764,176 491.264,171 488.764,166 "/>
    <polygon style="fill: none; fill-opacity:0; stroke-width: 2; stroke: #000000" points="498.764,171 488.764,176 491.264,171 488.764,166 "/>
  </g>
  <g>
    <line style="fill: none; fill-opacity:0; stroke-width: 2; stroke: #000000" x1="597.875" y1="171" x2="609.288" y2="171.173"/>
    <polygon style="fill: #000000" points="616.788,171.286 606.713,176.134 609.288,171.173 606.864,166.135 "/>
    <polygon style="fill: none; fill-opacity:0; stroke-width: 2; stroke: #000000" points="616.788,171.286 606.713,176.134 609.288,171.173 606.864,166.135 "/>
  </g>
</svg>
